# xmcd
#
# Track frame offsets: 
#        150
#        10835
#        20517
#        39594
#        56224
#        71774
#        82697
#        98696
#        113229
#        126430
#        138824
#        154250
#        168514
#        186560
#        201215
#        216849
#
# Disc length: 3133 seconds
#
# Revision: 1
# Processed by: cddbd v1.5.2PL0 Copyright (c) Steve Scherf et al.
# Submitted via: ExactAudioCopy v0.99pb5
#
DISCID=e20c3b10
DTITLE=The Soul Investigators - Home Cooking
DYEAR=2008
DGENRE=Funk
TTITLE0=Home Cooking (Part 1)
TTITLE1=Mo' Hash
TTITLE2=Greasy Pork
TTITLE3=Greens Please
TTITLE4=Midnight Bar-B-Q
TTITLE5=Brown Sauce
TTITLE6=Good Food
TTITLE7=Home Cooking (Part 2)
TTITLE8=Electric Cooker
TTITLE9=Deep Fried Chitlings
TTITLE10=Micro Popcorn
TTITLE11=Momma's Gravy (Yum Yum)
TTITLE12=Baby, It's Delicious!
TTITLE13=Funcky Bagg
TTITLE14=Butter Buns
TTITLE15=Round Two
EXTD=
EXTT0=
EXTT1=
EXTT2=
EXTT3=
EXTT4=
EXTT5=
EXTT6=
EXTT7=
EXTT8=
EXTT9=
EXTT10=
EXTT11=
EXTT12=
EXTT13=
EXTT14=
EXTT15=
PLAYORDER=
